<svg width="574" height="322" viewBox="0 0 574 322" fill="none" xmlns="http://www.w3.org/2000/svg">
<rect width="574" height="322" fill="#001C37"/>
<rect width="574" height="322" fill="#B5C4FF" fill-opacity="0.11"/>
<mask id="mask0_562_60996" style="mask-type:alpha" maskUnits="userSpaceOnUse" x="215" y="89" width="144" height="144">
<rect x="215" y="89" width="144" height="144" fill="#D9D9D9"/>
</mask>
<g mask="url(#mask0_562_60996)">
<path d="M272 188L314 161L272 134V188ZM287 221C278.7 221 270.9 219.424 263.6 216.272C256.3 213.124 249.95 208.85 244.55 203.45C239.15 198.05 234.876 191.7 231.728 184.4C228.576 177.1 227 169.3 227 161C227 152.7 228.576 144.9 231.728 137.6C234.876 130.3 239.15 123.95 244.55 118.55C249.95 113.15 256.3 108.874 263.6 105.722C270.9 102.574 278.7 101 287 101C295.3 101 303.1 102.574 310.4 105.722C317.7 108.874 324.05 113.15 329.45 118.55C334.85 123.95 339.124 130.3 342.272 137.6C345.424 144.9 347 152.7 347 161C347 169.3 345.424 177.1 342.272 184.4C339.124 191.7 334.85 198.05 329.45 203.45C324.05 208.85 317.7 213.124 310.4 216.272C303.1 219.424 295.3 221 287 221ZM287 209C300.4 209 311.75 204.35 321.05 195.05C330.35 185.75 335 174.4 335 161C335 147.6 330.35 136.25 321.05 126.95C311.75 117.65 300.4 113 287 113C273.6 113 262.25 117.65 252.95 126.95C243.65 136.25 239 147.6 239 161C239 174.4 243.65 185.75 252.95 195.05C262.25 204.35 273.6 209 287 209Z" fill="#001C37"/>
<path d="M272 188L314 161L272 134V188ZM287 221C278.7 221 270.9 219.424 263.6 216.272C256.3 213.124 249.95 208.85 244.55 203.45C239.15 198.05 234.876 191.7 231.728 184.4C228.576 177.1 227 169.3 227 161C227 152.7 228.576 144.9 231.728 137.6C234.876 130.3 239.15 123.95 244.55 118.55C249.95 113.15 256.3 108.874 263.6 105.722C270.9 102.574 278.7 101 287 101C295.3 101 303.1 102.574 310.4 105.722C317.7 108.874 324.05 113.15 329.45 118.55C334.85 123.95 339.124 130.3 342.272 137.6C345.424 144.9 347 152.7 347 161C347 169.3 345.424 177.1 342.272 184.4C339.124 191.7 334.85 198.05 329.45 203.45C324.05 208.85 317.7 213.124 310.4 216.272C303.1 219.424 295.3 221 287 221ZM287 209C300.4 209 311.75 204.35 321.05 195.05C330.35 185.75 335 174.4 335 161C335 147.6 330.35 136.25 321.05 126.95C311.75 117.65 300.4 113 287 113C273.6 113 262.25 117.65 252.95 126.95C243.65 136.25 239 147.6 239 161C239 174.4 243.65 185.75 252.95 195.05C262.25 204.35 273.6 209 287 209Z" fill="#B5C4FF" fill-opacity="0.25"/>
</g>
</svg>
