<svg width="574" height="322" viewBox="0 0 574 322" fill="none" xmlns="http://www.w3.org/2000/svg">
<rect width="574" height="322" fill="#001C37"/>
<rect width="574" height="322" fill="#B5C4FF" fill-opacity="0.11"/>
<mask id="mask0_559_60933" style="mask-type:alpha" maskUnits="userSpaceOnUse" x="215" y="89" width="144" height="144">
<rect x="215" y="89" width="144" height="144" fill="#D9D9D9"/>
</mask>
<g mask="url(#mask0_559_60933)">
<path d="M245 215C241.7 215 238.874 213.826 236.522 211.478C234.174 209.126 233 206.3 233 203V119C233 115.7 234.174 112.874 236.522 110.522C238.874 108.174 241.7 107 245 107H329C332.3 107 335.126 108.174 337.478 110.522C339.826 112.874 341 115.7 341 119V203C341 206.3 339.826 209.126 337.478 211.478C335.126 213.826 332.3 215 329 215H245ZM245 203H329V119H245V203ZM251 191H323L300.5 161L282.5 185L269 167L251 191Z" fill="#001C37"/>
<path d="M245 215C241.7 215 238.874 213.826 236.522 211.478C234.174 209.126 233 206.3 233 203V119C233 115.7 234.174 112.874 236.522 110.522C238.874 108.174 241.7 107 245 107H329C332.3 107 335.126 108.174 337.478 110.522C339.826 112.874 341 115.7 341 119V203C341 206.3 339.826 209.126 337.478 211.478C335.126 213.826 332.3 215 329 215H245ZM245 203H329V119H245V203ZM251 191H323L300.5 161L282.5 185L269 167L251 191Z" fill="#B5C4FF" fill-opacity="0.25"/>
</g>
</svg>
