<svg width="574" height="322" viewBox="0 0 574 322" fill="none" xmlns="http://www.w3.org/2000/svg">
<rect width="574" height="322" fill="#001C37"/>
<rect width="574" height="322" fill="#B5C4FF" fill-opacity="0.11"/>
<mask id="mask0_562_61016" style="mask-type:alpha" maskUnits="userSpaceOnUse" x="215" y="89" width="144" height="144">
<rect x="215" y="89" width="144" height="144" fill="#D9D9D9"/>
</mask>
<g mask="url(#mask0_562_61016)">
<path d="M281 191H257C248.7 191 241.626 188.074 235.778 182.222C229.926 176.374 227 169.3 227 161C227 152.7 229.926 145.624 235.778 139.772C241.626 133.924 248.7 131 257 131H281V143H257C252 143 247.75 144.75 244.25 148.25C240.75 151.75 239 156 239 161C239 166 240.75 170.25 244.25 173.75C247.75 177.25 252 179 257 179H281V191ZM263 167V155H311V167H263ZM293 191V179H317C322 179 326.25 177.25 329.75 173.75C333.25 170.25 335 166 335 161C335 156 333.25 151.75 329.75 148.25C326.25 144.75 322 143 317 143H293V131H317C325.3 131 332.376 133.924 338.228 139.772C344.076 145.624 347 152.7 347 161C347 169.3 344.076 176.374 338.228 182.222C332.376 188.074 325.3 191 317 191H293Z" fill="#001C37"/>
<path d="M281 191H257C248.7 191 241.626 188.074 235.778 182.222C229.926 176.374 227 169.3 227 161C227 152.7 229.926 145.624 235.778 139.772C241.626 133.924 248.7 131 257 131H281V143H257C252 143 247.75 144.75 244.25 148.25C240.75 151.75 239 156 239 161C239 166 240.75 170.25 244.25 173.75C247.75 177.25 252 179 257 179H281V191ZM263 167V155H311V167H263ZM293 191V179H317C322 179 326.25 177.25 329.75 173.75C333.25 170.25 335 166 335 161C335 156 333.25 151.75 329.75 148.25C326.25 144.75 322 143 317 143H293V131H317C325.3 131 332.376 133.924 338.228 139.772C344.076 145.624 347 152.7 347 161C347 169.3 344.076 176.374 338.228 182.222C332.376 188.074 325.3 191 317 191H293Z" fill="#B5C4FF" fill-opacity="0.25"/>
</g>
</svg>
